<svg width="734" height="107" viewBox="0 0 734 107" fill="none" xmlns="http://www.w3.org/2000/svg">
<path d="M28.272 95C18.672 95 11.5893 92.7387 7.024 88.216C2.50133 83.6507 0.240001 76.568 0.240001 66.968V37.656C0.240001 27.9707 2.50133 20.8667 7.024 16.344C11.5467 11.8213 18.5867 9.58133 28.144 9.62399H43.632C51.568 9.62399 57.584 11.288 61.68 14.616C65.776 17.9013 68.1227 23.1067 68.72 30.232C68.9333 31.8107 68.6347 33.0267 67.824 33.88C67.0133 34.6907 65.8187 35.096 64.24 35.096C61.3813 35.096 59.7387 33.5173 59.312 30.36C58.928 26.008 57.5413 23.0427 55.152 21.464C52.7627 19.8427 48.9227 19.032 43.632 19.032H28.144C23.4933 19.032 19.824 19.608 17.136 20.76C14.448 21.8693 12.528 23.7893 11.376 26.52C10.224 29.208 9.648 32.92 9.648 37.656V66.968C9.648 71.6613 10.224 75.3733 11.376 78.104C12.528 80.792 14.448 82.712 17.136 83.864C19.8667 85.016 23.5787 85.592 28.272 85.592H43.632C48.9227 85.592 52.7627 84.8027 55.152 83.224C57.5413 81.6027 58.928 78.616 59.312 74.264C59.7387 71.1067 61.3813 69.528 64.24 69.528C65.8187 69.528 67.0133 69.9547 67.824 70.808C68.6347 71.6187 68.9333 72.8133 68.72 74.392C68.1227 81.56 65.776 86.7867 61.68 90.072C57.584 93.3573 51.568 95 43.632 95H28.272ZM107.442 95C100.445 95 95.2607 93.3147 91.89 89.944C88.5193 86.5733 86.834 81.3893 86.834 74.392C86.834 67.3947 88.498 62.2107 91.826 58.84C95.1967 55.4693 100.402 53.784 107.442 53.784H135.154C134.983 48.92 133.789 45.5707 131.57 43.736C129.351 41.9013 125.575 40.984 120.242 40.984H112.818C108.167 40.984 104.711 41.368 102.45 42.136C100.231 42.904 98.738 44.248 97.97 46.168C97.3727 47.704 96.7113 48.792 95.986 49.432C95.3033 50.0293 94.2367 50.328 92.786 50.328C91.2073 50.328 89.97 49.9013 89.074 49.048C88.2207 48.152 87.9647 46.9787 88.306 45.528C89.33 40.7067 91.8473 37.1867 95.858 34.968C99.8687 32.7067 105.522 31.576 112.818 31.576H120.242C128.562 31.576 134.706 33.56 138.674 37.528C142.642 41.496 144.626 47.64 144.626 55.96V90.264C144.626 93.4213 143.069 95 139.954 95C136.797 95 135.218 93.4213 135.218 90.264V86.232C130.823 92.0773 123.954 95 114.61 95H107.442ZM107.442 85.592H114.61C118.066 85.592 121.245 85.2507 124.146 84.568C127.047 83.8853 129.479 82.6907 131.442 80.984C133.405 79.2773 134.663 76.888 135.218 73.816V63.192H107.442C103.047 63.192 100.082 63.9813 98.546 65.56C97.01 67.096 96.242 70.04 96.242 74.392C96.242 78.7867 97.01 81.752 98.546 83.288C100.082 84.824 103.047 85.592 107.442 85.592ZM258.475 95C255.318 95 253.739 93.4213 253.739 90.264V10.008C253.739 6.89333 255.318 5.336 258.475 5.336C261.59 5.336 263.147 6.89333 263.147 10.008V39.704C267.499 34.2853 274.39 31.576 283.819 31.576H287.403C295.723 31.576 301.867 33.56 305.835 37.528C309.803 41.496 311.787 47.64 311.787 55.96V90.264C311.787 93.4213 310.23 95 307.115 95C303.958 95 302.379 93.4213 302.379 90.264V55.96C302.379 50.2 301.291 46.2747 299.115 44.184C296.982 42.0507 293.078 40.984 287.403 40.984H283.819C278.187 40.984 273.472 41.7307 269.675 43.224C265.878 44.6747 263.702 46.9787 263.147 50.136V90.264C263.147 93.4213 261.59 95 258.475 95ZM400.235 95C392 95 385.942 93.0587 382.059 89.176C378.176 85.2933 376.235 79.256 376.235 71.064V40.984H369.515C366.358 40.984 364.779 39.4053 364.779 36.248C364.779 33.1333 366.358 31.576 369.515 31.576H376.235V20.76C376.235 17.6027 377.792 16.024 380.907 16.024C384.064 16.024 385.643 17.6027 385.643 20.76V31.576H400.811C403.926 31.576 405.483 33.1333 405.483 36.248C405.483 39.4053 403.926 40.984 400.811 40.984H385.643V71.064C385.643 76.696 386.667 80.536 388.715 82.584C390.806 84.5893 394.646 85.592 400.235 85.592C401.771 85.592 402.944 85.976 403.755 86.744C404.566 87.4693 404.971 88.6427 404.971 90.264C404.971 93.4213 403.392 95 400.235 95ZM429.6 95C426.443 95 424.864 93.4213 424.864 90.264V36.248C424.864 33.1333 426.443 31.576 429.6 31.576C432.715 31.576 434.272 33.1333 434.272 36.248V42.904C436.704 39.192 439.904 36.376 443.872 34.456C447.883 32.536 452.533 31.576 457.824 31.576C460.981 31.576 462.56 33.1333 462.56 36.248C462.56 39.4053 460.981 40.984 457.824 40.984C450.357 40.984 444.64 42.4773 440.672 45.464C436.704 48.408 434.571 52.44 434.272 57.56V90.264C434.272 93.4213 432.715 95 429.6 95ZM492.817 95C485.82 95 480.636 93.3147 477.265 89.944C473.894 86.5733 472.209 81.3893 472.209 74.392C472.209 67.3947 473.873 62.2107 477.201 58.84C480.572 55.4693 485.777 53.784 492.817 53.784H520.529C520.358 48.92 519.164 45.5707 516.945 43.736C514.726 41.9013 510.95 40.984 505.617 40.984H498.193C493.542 40.984 490.086 41.368 487.825 42.136C485.606 42.904 484.113 44.248 483.345 46.168C482.748 47.704 482.086 48.792 481.361 49.432C480.678 50.0293 479.612 50.328 478.161 50.328C476.582 50.328 475.345 49.9013 474.449 49.048C473.596 48.152 473.34 46.9787 473.681 45.528C474.705 40.7067 477.222 37.1867 481.233 34.968C485.244 32.7067 490.897 31.576 498.193 31.576H505.617C513.937 31.576 520.081 33.56 524.049 37.528C528.017 41.496 530.001 47.64 530.001 55.96V90.264C530.001 93.4213 528.444 95 525.329 95C522.172 95 520.593 93.4213 520.593 90.264V86.232C516.198 92.0773 509.329 95 499.985 95H492.817ZM492.817 85.592H499.985C503.441 85.592 506.62 85.2507 509.521 84.568C512.422 83.8853 514.854 82.6907 516.817 80.984C518.78 79.2773 520.038 76.888 520.593 73.816V63.192H492.817C488.422 63.192 485.457 63.9813 483.921 65.56C482.385 67.096 481.617 70.04 481.617 74.392C481.617 78.7867 482.385 81.752 483.921 83.288C485.457 84.824 488.422 85.592 492.817 85.592ZM559.225 95C556.068 95 554.489 93.4213 554.489 90.264V10.008C554.489 6.89333 556.068 5.336 559.225 5.336C562.34 5.336 563.897 6.89333 563.897 10.008V59.8L595.065 33.048C597.412 31 599.609 31.1493 601.657 33.496C603.705 35.8853 603.556 38.0827 601.209 40.088L577.785 60.312L601.209 86.936C603.3 89.3253 603.172 91.5227 600.825 93.528C598.478 95.576 596.26 95.4267 594.169 93.08L570.553 66.52L563.897 72.28V90.264C563.897 93.4213 562.34 95 559.225 95ZM622.523 67.096V70.68C622.523 76.3547 623.59 80.2587 625.723 82.392C627.856 84.5253 631.803 85.592 637.563 85.592H648.059C652.752 85.592 656.187 85.1013 658.363 84.12C660.582 83.096 662.011 81.3253 662.651 78.808C662.992 77.4 663.526 76.312 664.251 75.544C665.019 74.776 666.15 74.392 667.643 74.392C669.222 74.392 670.416 74.8187 671.227 75.672C672.038 76.4827 672.315 77.6773 672.059 79.256C671.248 84.5893 668.838 88.5573 664.827 91.16C660.859 93.72 655.27 95 648.059 95H637.563C629.243 95 623.078 93.016 619.067 89.048C615.099 85.08 613.115 78.9573 613.115 70.68V55.96C613.115 47.512 615.099 41.3253 619.067 37.4C623.078 33.432 629.243 31.4907 637.563 31.576H648.059C656.379 31.576 662.523 33.56 666.491 37.528C670.459 41.4533 672.443 47.5973 672.443 55.96V62.36C672.443 65.5173 670.886 67.096 667.771 67.096H622.523ZM637.563 40.984C631.803 40.8987 627.856 41.9227 625.723 44.056C623.59 46.1893 622.523 50.1573 622.523 55.96V57.688H663.035V55.96C663.035 50.2 661.968 46.2747 659.835 44.184C657.744 42.0507 653.819 40.984 648.059 40.984H637.563ZM700.225 95C697.068 95 695.489 93.4213 695.489 90.264V36.248C695.489 33.1333 697.068 31.576 700.225 31.576C703.34 31.576 704.897 33.1333 704.897 36.248V42.904C707.329 39.192 710.529 36.376 714.497 34.456C718.508 32.536 723.158 31.576 728.449 31.576C731.606 31.576 733.185 33.1333 733.185 36.248C733.185 39.4053 731.606 40.984 728.449 40.984C720.982 40.984 715.265 42.4773 711.297 45.464C707.329 48.408 705.196 52.44 704.897 57.56V90.264C704.897 93.4213 703.34 95 700.225 95Z" fill="white"/>
<path d="M189.786 95C181.807 95 175.919 93.1013 172.122 89.304C168.367 85.464 166.49 79.5973 166.49 71.704C166.49 70.424 166.959 69.336 167.898 68.44C168.837 67.5013 169.946 67.032 171.226 67.032C172.506 67.032 173.594 67.5013 174.49 68.44C175.429 69.336 175.898 70.424 175.898 71.704C175.898 77.08 176.901 80.7493 178.906 82.712C180.911 84.632 184.538 85.592 189.786 85.592H207.45C212.698 85.592 216.303 84.632 218.266 82.712C220.271 80.7493 221.274 77.08 221.274 71.704C221.274 66.328 220.271 62.68 218.266 60.76C216.303 58.84 212.698 57.88 207.45 57.88H191.706C184.154 57.88 178.543 56.088 174.874 52.504C171.247 48.92 169.434 43.3733 169.434 35.864C169.434 28.2693 171.247 22.68 174.874 19.096C178.501 15.512 184.069 13.72 191.578 13.72H207.066C214.575 13.72 220.122 15.512 223.706 19.096C227.333 22.68 229.146 28.2267 229.146 35.736C229.146 37.016 228.677 38.1253 227.738 39.064C226.842 39.96 225.754 40.408 224.474 40.408C223.194 40.408 222.085 39.96 221.146 39.064C220.207 38.1253 219.738 37.016 219.738 35.736C219.738 30.872 218.842 27.5653 217.05 25.816C215.301 24.024 211.973 23.128 207.066 23.128H191.578C186.671 23.128 183.322 24.024 181.53 25.816C179.738 27.608 178.842 30.9573 178.842 35.864C178.842 40.6853 179.738 43.992 181.53 45.784C183.322 47.576 186.714 48.472 191.706 48.472H207.45C215.343 48.472 221.189 50.3707 224.986 54.168C228.783 57.9653 230.682 63.8107 230.682 71.704C230.682 79.5973 228.783 85.464 224.986 89.304C221.189 93.1013 215.343 95 207.45 95H189.786ZM198.682 106.264C195.994 106.264 194.65 104.92 194.65 102.232V55.256L195.354 50.776V4.75999C195.354 2.072 196.698 0.727997 199.386 0.727997C202.074 0.727997 203.418 2.072 203.418 4.75999V51.288L202.714 55.256V102.232C202.714 104.92 201.37 106.264 198.682 106.264Z" fill="#81D15A"/>
</svg>
